<svg width="234" height="81" viewBox="0 0 234 81" fill="none" xmlns="http://www.w3.org/2000/svg">
<path d="M99.5277 50.16H103.168V30.6H99.7277V25.8H108.808V50.16H112.448V55H99.5277V50.16ZM121.995 55.56C119.809 55.56 118.089 54.8933 116.835 53.56C115.582 52.2267 114.955 50.4 114.955 48.08V34.4H120.595V47.16C120.595 48.2533 120.862 49.1067 121.395 49.72C121.929 50.3067 122.649 50.6 123.555 50.6C124.462 50.6 125.329 50.3067 126.155 49.72C127.009 49.1333 127.715 48.3467 128.275 47.36V34.4H133.915V55H128.275V52.28C127.502 53.32 126.609 54.1333 125.595 54.72C124.609 55.28 123.409 55.56 121.995 55.56ZM137.381 50.16H141.021V30.6H137.581V25.8H146.661V50.16H150.301V55H137.381V50.16ZM151.893 50.16H155.533V30.6H152.093V25.8H161.173V50.16H164.813V55H151.893V50.16ZM174.361 55.56C172.174 55.56 170.454 54.8933 169.201 53.56C167.948 52.2267 167.321 50.4 167.321 48.08V34.4H172.961V47.16C172.961 48.2533 173.228 49.1067 173.761 49.72C174.294 50.3067 175.014 50.6 175.921 50.6C176.828 50.6 177.694 50.3067 178.521 49.72C179.374 49.1333 180.081 48.3467 180.641 47.36V34.4H186.281V55H180.641V52.28C179.868 53.32 178.974 54.1333 177.961 54.72C176.974 55.28 175.774 55.56 174.361 55.56ZM190.666 34.4H196.146L196.026 37.08H196.186C196.88 36.0133 197.72 35.2 198.706 34.64C199.72 34.08 200.866 33.8 202.146 33.8C204.466 33.8 206.28 34.6933 207.586 36.48C208.92 38.24 209.586 40.7067 209.586 43.88C209.586 47.64 208.6 50.5333 206.626 52.56C204.68 54.56 201.893 55.56 198.266 55.56C197.813 55.56 197.133 55.5333 196.226 55.48V63.72H190.666V34.4ZM198.826 50.64C200.506 50.64 201.773 50.0933 202.626 49C203.506 47.9067 203.946 46.3067 203.946 44.2C203.946 42.4933 203.666 41.16 203.106 40.2C202.573 39.2133 201.826 38.72 200.866 38.72C200.013 38.72 199.186 39.0933 198.386 39.84C197.586 40.56 196.866 41.6 196.226 42.96V50.28C197.133 50.52 198 50.64 198.826 50.64Z" fill="#0480A0"/>
<rect width="81" height="81" rx="40.5" fill="#FFEFE2"/>
<path d="M28.1732 19.1591C23.9743 22.6062 22.0398 28.1342 24.0725 33.3211C23.4306 34.3525 22.8188 35.402 22.2375 36.4702C20.943 38.6737 19.7304 40.9207 18.5997 43.2112C15.1999 50.0956 13.3841 58.7276 18.4709 65.4062C20.0355 67.4625 22.1171 69.0303 24.6057 69.8107C24.6057 69.8107 56.7345 69.5835 57.0827 69.398C59.3941 68.1685 61.002 65.9644 61.5085 63.3942C62.0338 60.7289 61.0106 58.1279 58.4204 57.0014L58.4813 56.8374L58.568 56.7556C58.9499 56.7233 59.3532 56.7191 59.7101 56.6388C64.6154 55.534 66.3415 49.5117 62.2051 46.3032C61.9408 46.0976 61.6605 45.9262 61.3638 45.7886C61.4722 45.4785 61.5613 45.1607 61.6311 44.8349C61.674 44.6335 61.5158 44.4479 61.3301 44.5526C59.1481 45.7854 55.4303 47.9014 50.1768 50.9002C49.9575 51.0257 49.9431 51.0901 49.8837 51.3245C48.6026 56.3794 47.3909 61.4539 46.0969 66.5047C45.8833 67.3373 45.6815 68.1851 45.4914 69.0484C45.0649 69.374 44.5944 69.5013 44.0799 69.4303C43.4222 69.3385 42.5316 68.7954 41.8608 68.4586C41.9775 68.3071 42.0756 68.0742 42.1555 67.76C43.597 62.0787 45.0308 56.3931 46.4422 50.7046C46.4478 50.6828 46.4369 50.6602 46.4166 50.6501C41.3493 48.1388 36.2506 45.6961 31.1976 43.1546C31.1359 43.1235 31.0619 43.1152 30.9754 43.1295L32.4659 42.4339C32.5066 42.4152 32.5535 42.416 32.5934 42.4359L33.3227 42.8078L42.2149 47.1937C43.536 47.8596 44.8605 48.5186 46.1878 49.1704C46.9611 49.5495 47.5708 50.036 48.2464 50.5556C48.2689 50.5732 48.2878 50.5699 48.3032 50.5456C48.7474 49.8406 49.3391 49.1376 50.0836 48.7449C50.8503 48.3413 51.6283 47.9262 52.4174 47.4997L57.3098 44.7619C57.3441 44.7427 57.3487 44.7182 57.3234 44.688L54.3885 41.2193C54.3966 41.1915 54.4112 41.1682 54.4322 41.1491C58.3316 37.6339 59.672 32.3324 58.1962 27.2929C59.3641 26.7514 60.3373 25.9856 61.116 24.9959C62.9495 22.6651 62.392 19.2515 59.7101 17.8657C57.3398 16.6405 54.7654 17.7612 53.252 19.7459C49.6665 16.5352 44.9649 14.9115 40.1541 14.9566C40.0146 14.9582 39.8547 14.9863 39.674 15.0412C39.042 13.0644 37.5924 11.7611 35.6113 11.258C31.1108 10.1165 26.4599 13.7336 27.9497 18.5458C28.0364 18.827 28.111 19.0316 28.1732 19.1591ZM48.1741 14.415C47.974 14.8157 48.0048 15.2247 48.2666 15.6417C48.5181 16.0429 48.9616 16.5839 49.4531 16.624C49.4769 16.6259 49.4969 16.618 49.5133 16.6004C49.5859 16.5245 49.6343 16.4286 49.6587 16.313C49.805 15.6167 49.7749 14.8593 49.2117 14.3376C48.935 14.0803 48.3619 14.0388 48.1741 14.415ZM50.7063 15.3823C50.4283 15.8189 50.3193 16.3233 50.3796 16.8956C50.3932 17.0232 50.419 17.1042 50.5666 17.1113C51.2024 17.1414 51.7524 16.9395 52.2167 16.5058C52.595 16.1526 52.9935 15.5664 53.05 15.0434C53.1124 14.4623 52.6544 14.1141 52.1158 14.2545C51.5424 14.4036 51.0187 14.8902 50.7063 15.3823Z" fill="#FEFDFE" fill-opacity="0.37"/>
<path d="M39.6738 15.0412C39.7761 15.7228 39.7906 16.4014 39.7175 17.0768C39.7147 17.1042 39.6998 17.1193 39.6731 17.1228L38.1829 17.3062C37.8294 17.2933 37.512 17.2783 37.161 17.3548C34.8796 17.8528 32.8655 18.7213 31.0755 20.2669C30.6472 20.6366 30.2465 21.0119 29.8741 21.3932C29.8381 21.4296 29.7789 21.4287 29.7442 21.3909C29.1147 20.705 28.5909 19.9611 28.173 19.1591C28.1108 19.0316 28.0362 18.827 27.9495 18.5458C26.4598 13.7336 31.1106 10.1165 35.6111 11.258C37.5923 11.7611 39.0419 13.0644 39.6738 15.0412Z" fill="#182D47"/>
<path d="M48.174 14.4149C48.3618 14.0388 48.9349 14.0803 49.2116 14.3376C49.7748 14.8593 49.8049 15.6166 49.6586 16.313C49.6342 16.4286 49.5858 16.5245 49.5132 16.6003C49.4968 16.618 49.4768 16.6258 49.453 16.624C48.9615 16.5839 48.518 16.0429 48.2665 15.6417C48.0047 15.2247 47.9739 14.8157 48.174 14.4149Z" fill="#61A35C"/>
<path d="M50.7061 15.3822C51.0184 14.8901 51.5422 14.4035 52.1156 14.2545C52.6542 14.114 53.1122 14.4622 53.0497 15.0433C52.9932 15.5663 52.5948 16.1525 52.2165 16.5057C51.7521 16.9394 51.2021 17.1413 50.5664 17.1112C50.4188 17.1041 50.3929 17.0231 50.3794 16.8955C50.3191 16.3232 50.4281 15.8189 50.7061 15.3822Z" fill="#61A35C"/>
<path d="M53.2518 19.7458C55.3141 21.618 56.9563 23.8715 57.9065 26.4984C58.0039 26.7673 58.1003 27.0323 58.196 27.2929C59.6718 32.3323 58.3314 37.6338 54.432 41.149C54.411 41.1682 54.3964 41.1915 54.3883 41.2193C54.3668 41.2134 54.3453 41.2193 54.3239 41.2365C53.5652 41.8313 52.767 42.3803 51.9292 42.8837C50.7961 43.4502 49.6048 43.88 48.3552 44.1727C47.2948 44.3609 46.3461 44.474 45.5092 44.5117C41.8334 44.6773 38.0917 43.8274 34.7062 42.4203C32.6267 41.4969 30.6734 40.3566 28.8458 38.9995C28.5247 38.7611 28.219 38.5052 27.9286 38.2314C27.9429 38.1793 27.9441 38.1431 27.9322 38.1226C26.2518 35.2235 25.9388 31.5892 26.6732 28.3677C27.9429 22.7946 32.6455 18.411 38.1828 17.3062L39.6731 17.1227C39.6998 17.1193 39.7147 17.1042 39.7175 17.0767C39.7906 16.4013 39.776 15.7228 39.6738 15.0412C39.8545 14.9863 40.0144 14.9582 40.1539 14.9566C44.9647 14.9115 49.6663 16.5352 53.2518 19.7458ZM35.0222 40.0965C35.9257 40.9514 37.0621 41.5719 38.1913 42.0784C38.2107 42.0865 38.2316 42.0707 38.229 42.0499C38.2283 42.0451 38.2264 42.0406 38.2236 42.0368C37.247 40.8022 37.1167 39.1571 38.2436 37.9619C39.0612 37.0951 40.1051 36.5354 41.0797 35.9091C42.5048 34.9935 43.9508 33.0553 43.8863 31.2596C43.8174 29.3522 42.2403 28.1793 40.4039 28.2747C38.5224 28.3721 36.8644 29.5321 35.594 30.847C33.0869 33.4428 32.1525 37.3817 35.0222 40.0965ZM54.7465 32.0378C53.7736 29.9047 51.1582 28.6851 49.1312 30.2938C47.188 31.8364 47.3062 34.5183 48.7335 36.3635C49.8262 37.7757 51.4799 39.4302 50.3098 41.354C49.8994 42.0289 49.4171 42.3929 48.7042 42.8567C48.6836 42.8695 48.6853 42.8742 48.7091 42.8709C49.685 42.7284 50.5035 42.4981 51.1646 42.1793C53.2641 41.1683 54.7661 39.6085 55.2983 37.2979C55.7116 35.5036 55.5276 33.7502 54.7465 32.0378ZM43.4342 36.3485C42.7448 36.764 42.2112 37.1018 41.8334 37.3623C40.5494 38.2485 38.9795 39.4924 40.1624 41.2252C41.1943 42.7361 43.3109 43.2541 45.0291 43.141C46.4729 43.0471 48.3014 42.5513 49.003 41.144C49.6457 39.8536 48.99 38.7975 48.0249 37.9498C48.1839 37.2476 47.6896 36.8214 47.0998 36.5454C46.4579 36.2451 44.4536 35.5251 43.7745 36.0331C43.6594 36.1195 43.5458 36.2246 43.4342 36.3485Z" fill="#3DC2D7"/>
<path d="M38.1827 17.3062C32.6454 18.411 27.9428 22.7946 26.6731 28.3677C25.9387 31.5892 26.2517 35.2235 27.9321 38.1226C27.944 38.1431 27.9428 38.1793 27.9285 38.2314C26.3531 37.0114 25.1209 35.5093 24.232 33.7251C24.2162 33.6943 24.1124 33.3025 24.0722 33.321C22.0395 28.1342 23.974 22.6061 28.1729 19.159C28.5907 19.961 29.1146 20.705 29.7441 21.3909C29.7788 21.4287 29.8379 21.4295 29.8739 21.3932C30.2464 21.0118 30.647 20.6365 31.0754 20.2669C32.8654 18.7213 34.8795 17.8527 37.1609 17.3547C37.5119 17.2782 37.8293 17.2933 38.1827 17.3062Z" fill="#0480A0"/>
<path d="M58.1961 27.2929C58.1005 27.0323 58.0041 26.7673 57.9066 26.4985C56.9565 23.8716 55.3142 21.6181 53.252 19.7459C54.7654 17.7612 57.3398 16.6405 59.71 17.8657C62.3919 19.2515 62.9495 22.6651 61.1159 24.9959C60.3372 25.9856 59.364 26.7514 58.1961 27.2929Z" fill="#182D47"/>
<path d="M35.0221 40.0965C32.1525 37.3816 33.0869 33.4427 35.594 30.8469C36.8643 29.532 38.5223 28.3721 40.4038 28.2747C42.2403 28.1793 43.8174 29.3522 43.8863 31.2596C43.9507 33.0553 42.5048 34.9935 41.0797 35.9091C40.105 36.5353 39.0612 37.0951 38.2435 37.9619C37.1166 39.1571 37.2469 40.8021 38.2235 42.0368C38.2362 42.0535 38.226 42.0777 38.2054 42.0803C38.2006 42.081 38.1956 42.0802 38.1912 42.0784C37.0621 41.5718 35.9257 40.9514 35.0221 40.0965ZM40.8309 34.125C40.8309 33.3558 40.2073 32.7321 39.4379 32.7321C38.6688 32.7321 38.0452 33.3558 38.0452 34.125C38.0452 34.8942 38.6688 35.5178 39.4379 35.5178C40.2073 35.5178 40.8309 34.8942 40.8309 34.125Z" fill="#FEFDFE"/>
<path d="M49.1315 30.2938C51.1584 28.6851 53.7738 29.9046 54.7468 32.0378C55.5278 33.7502 55.7118 35.5036 55.2986 37.2978C54.7663 39.6085 53.2644 41.1683 51.1649 42.1793C50.5037 42.4981 49.6852 42.7284 48.7094 42.8709C48.6856 42.8742 48.6839 42.8694 48.7045 42.8566C49.4173 42.3929 49.8996 42.0289 50.31 41.354C51.4801 39.4301 49.8264 37.7757 48.7338 36.3634C47.3065 34.5183 47.1883 31.8364 49.1315 30.2938ZM52.4058 35.1425C52.4058 34.3803 51.7882 33.7624 51.0259 33.7624C50.2638 33.7624 49.646 34.3803 49.646 35.1425C49.646 35.9046 50.2638 36.5225 51.0259 36.5225C51.7882 36.5225 52.4058 35.9046 52.4058 35.1425Z" fill="#FEFDFE"/>
<path d="M39.4378 35.5179C40.2071 35.5179 40.8307 34.8943 40.8307 34.1251C40.8307 33.3558 40.2071 32.7322 39.4378 32.7322C38.6685 32.7322 38.0449 33.3558 38.0449 34.1251C38.0449 34.8943 38.6685 35.5179 39.4378 35.5179Z" fill="#182D47"/>
<path d="M24.0721 33.3211C24.1122 33.3025 24.2161 33.6944 24.2319 33.7251C25.1208 35.5094 26.353 37.0114 27.9284 38.2314C28.2188 38.5052 28.5245 38.7612 28.8456 38.9996C30.6732 40.3567 32.6265 41.4969 34.706 42.4203C34.7183 42.4808 34.7081 42.5067 34.6751 42.4977C34.4395 42.4303 34.1757 42.3056 33.9436 42.3328C33.7195 42.3591 33.517 42.4448 33.3361 42.5901C33.3141 42.6077 33.313 42.6263 33.3331 42.646L33.3718 42.6847C33.3895 42.7023 33.3942 42.7292 33.384 42.752C33.373 42.7768 33.3524 42.7953 33.3223 42.8078L32.5929 42.4359C32.5531 42.4161 32.5062 42.4152 32.4655 42.4339L30.975 43.1295C30.848 43.1024 30.7614 43.1878 30.715 43.3862C30.3195 45.0799 29.9236 46.7747 29.5277 48.4705C29.5218 48.4935 29.5245 48.5157 29.5356 48.5372C30.0672 49.6058 30.365 50.736 30.429 51.9277C30.5366 53.921 29.3815 55.7281 27.2929 55.9245C27.2794 55.926 27.2551 55.9385 27.2197 55.9624C27.1724 55.9634 27.1253 55.9512 27.0785 55.926C27.0581 55.915 27.0363 55.9097 27.0134 55.9101C26.3523 55.9155 25.7827 55.8068 25.3045 55.5842C21.1896 53.6682 20.2173 48.4433 20.5317 44.405C20.7388 41.7481 21.4683 39.1923 22.265 36.6622C22.2887 36.587 22.2628 36.5376 22.2371 36.4703C22.8184 35.402 23.4301 34.3525 24.0721 33.3211Z" fill="#182D47"/>
<path d="M51.0256 36.5226C51.7878 36.5226 52.4056 35.9047 52.4056 35.1425C52.4056 34.3803 51.7878 33.7625 51.0256 33.7625C50.2634 33.7625 49.6455 34.3803 49.6455 35.1425C49.6455 35.9047 50.2634 36.5226 51.0256 36.5226Z" fill="#182D47"/>
<path d="M48.0249 37.9498C47.6647 38.5292 47.1659 38.9608 46.5288 39.2446C45.8445 39.5491 44.979 39.5985 44.4035 39.064C43.6034 38.3207 43.2804 37.4155 43.4342 36.3484C43.5458 36.2246 43.6594 36.1194 43.7745 36.0331C44.4536 35.5251 46.4578 36.2451 47.0998 36.5453C47.6896 36.8214 48.1839 37.2476 48.0249 37.9498Z" fill="#182D47"/>
<path d="M43.4345 36.3485C43.2806 37.4155 43.6037 38.3208 44.4037 39.0641C44.9792 39.5986 45.8448 39.5492 46.5291 39.2447C47.1662 38.9609 47.6649 38.5293 48.0252 37.9499C48.9902 38.7975 49.646 39.8537 49.0033 41.1441C48.3016 42.5514 46.4731 43.0472 45.0294 43.1411C43.3111 43.2542 41.1945 42.7362 40.1627 41.2252C38.9797 39.4925 40.5496 38.2485 41.8337 37.3623C42.2114 37.1019 42.745 36.764 43.4345 36.3485Z" fill="#FEFDFE"/>
<path d="M22.2375 36.4702C22.2633 36.5376 22.2891 36.587 22.2655 36.6621C21.4687 39.1923 20.7392 41.7481 20.5321 44.405C20.2177 48.4433 21.19 53.6682 25.305 55.5842C25.7831 55.8067 26.3527 55.9154 27.0138 55.9101C27.0367 55.9097 27.0585 55.9149 27.079 55.9259C27.1257 55.9512 27.1728 55.9634 27.2201 55.9624C27.2201 56.0519 27.2267 56.1308 27.2036 56.219C26.9744 57.1011 26.8046 58.0057 26.6942 58.9324C24.0431 61.1469 21.3261 63.2975 18.5431 65.384C18.5187 65.4018 18.5009 65.3997 18.4709 65.4062C13.3841 58.7275 15.1999 50.0955 18.5997 43.2112C19.7304 40.9207 20.943 38.6737 22.2375 36.4702Z" fill="#0480A0"/>
<path d="M54.3884 41.2194L57.3232 44.6881C57.3486 44.7182 57.3439 44.7427 57.3096 44.7619L52.4172 47.4997C52.5604 45.9438 52.3979 44.4053 51.9292 42.8838C52.767 42.3803 53.5652 41.8313 54.3239 41.2366C54.3453 41.2194 54.3668 41.2135 54.3884 41.2194Z" fill="#182D47"/>
<path d="M34.7061 42.4203C38.0916 43.8274 41.8333 44.6773 45.509 44.5117C46.346 44.474 47.2946 44.3609 48.3551 44.1727C47.4308 45.8652 45.7606 46.9378 43.8947 47.2969C43.3379 47.4036 42.8392 47.4688 42.3506 47.1888C42.3152 47.1686 42.2698 47.1702 42.2146 47.1936L33.3223 42.8077C33.3525 42.7953 33.3731 42.7768 33.3841 42.752C33.3943 42.7292 33.3896 42.7022 33.3719 42.6846L33.3332 42.646C33.3131 42.6262 33.3142 42.6077 33.3361 42.5901C33.5171 42.4448 33.7196 42.359 33.9437 42.3328C34.1757 42.3056 34.4396 42.4303 34.6752 42.4976C34.7081 42.5066 34.7184 42.4808 34.7061 42.4203Z" fill="#0480A0"/>
<path d="M51.9293 42.8838C52.3981 44.4053 52.5606 45.9438 52.4173 47.4997C51.6282 47.9262 50.8502 48.3413 50.0836 48.7449C49.339 49.1376 48.7473 49.8406 48.3031 50.5456C48.2878 50.5699 48.2688 50.5732 48.2464 50.5556C47.5708 50.036 46.961 49.5495 46.1878 49.1704C44.8604 48.5186 43.536 47.8596 42.2148 47.1937C42.2701 47.1703 42.3155 47.1687 42.3509 47.1888C42.8395 47.4688 43.3382 47.4036 43.895 47.2969C45.7609 46.9378 47.4311 45.8652 48.3553 44.1727C49.605 43.88 50.7962 43.4502 51.9293 42.8838Z" fill="#0480A0"/>
<path d="M30.9751 43.1294C31.0616 43.1152 31.1356 43.1235 31.1972 43.1546C36.2502 45.6961 41.349 48.1388 46.4162 50.65C46.4366 50.6601 46.4475 50.6827 46.4419 50.7045C45.0304 56.393 43.5967 62.0786 42.1552 67.7599C42.0752 68.0742 41.9772 68.3071 41.8605 68.4586L37.9828 66.5226C37.9618 66.512 37.9564 66.4963 37.9669 66.4752C40.1193 62.2944 37.4067 56.9649 32.6288 56.6108C30.2264 56.4333 28.4774 57.5051 26.6938 58.9323C26.8043 58.0056 26.9741 57.1011 27.2033 56.2189C27.2264 56.1307 27.2198 56.0519 27.2198 55.9624C27.2552 55.9385 27.2794 55.9259 27.293 55.9244C29.3816 55.728 30.5367 53.921 30.4291 51.9276C30.3651 50.7359 30.0673 49.6057 29.5357 48.5371C29.5246 48.5156 29.5219 48.4934 29.5278 48.4705C29.9237 46.7747 30.3196 45.0799 30.7151 43.3861C30.7614 43.1878 30.8481 43.1024 30.9751 43.1294Z" fill="#FE7F15"/>
<path d="M61.3635 45.7886L58.5469 56.694C58.4834 56.7127 58.4614 56.7604 58.481 56.8374L58.4202 57.0014C56.7907 56.5074 55.2768 56.7291 53.878 57.6663C51.0752 59.5451 49.6835 62.9472 50.5564 66.2552C50.5626 66.2796 50.5546 66.2978 50.5326 66.3097C49.1135 67.0802 47.704 67.86 46.3045 68.6492C46.0789 68.7763 45.808 68.9094 45.4912 69.0484C45.6813 68.1851 45.8831 67.3374 46.0967 66.5047C47.3906 61.4539 48.6023 56.3794 49.8835 51.3245C49.9429 51.0901 49.9573 51.0257 50.1766 50.9002C55.4301 47.9014 59.1479 45.7854 61.3299 44.5526C61.5155 44.448 61.6738 44.6335 61.6308 44.8349C61.5611 45.1607 61.472 45.4785 61.3635 45.7886Z" fill="#FE7F15"/>
<path d="M61.3636 45.7886C61.6603 45.9262 61.9406 46.0976 62.2049 46.3032C66.3413 49.5116 64.6152 55.5339 59.7099 56.6388C59.353 56.719 58.9497 56.7233 58.5678 56.7555C58.5529 56.7466 58.5461 56.7261 58.5469 56.6939L61.3636 45.7886Z" fill="#182D47"/>
<path d="M41.8607 68.4586C42.5314 68.7953 43.422 69.3385 44.0797 69.4302C44.5942 69.5012 45.0647 69.374 45.4913 69.0483C45.8081 68.9094 46.0789 68.7763 46.3045 68.6492C47.7041 67.8599 49.1136 67.0801 50.5327 66.3097C50.5546 66.2977 50.5627 66.2795 50.5565 66.2551C49.6835 62.9471 51.0752 59.545 53.878 57.6662C55.2769 56.729 56.7908 56.5073 58.4202 57.0013C61.0104 58.1279 62.0336 60.7288 61.5083 63.3941C61.0019 65.9643 59.3939 68.1685 57.0825 69.398C56.7343 69.5834 56.3344 69.7239 55.9517 69.8637C55.775 69.9056 55.5724 69.9271 55.3434 69.9281C53.0699 69.9397 50.9024 69.8622 48.6799 69.7684C47.3371 69.7125 46.0057 69.7281 44.6708 69.6508C44.2323 69.6255 43.8549 69.6176 43.5388 69.6272C41.6198 69.6864 39.7009 69.7076 37.7815 69.691C36.8866 69.683 35.9565 69.6659 35.0773 69.825C34.1723 69.9891 33.1944 70.0428 32.3431 70.0398C30.399 70.0336 28.4547 70.0263 26.5106 70.0176C25.9547 70.0148 25.0539 70.0285 24.6055 69.8106C22.1169 69.0303 20.0354 67.4625 18.4707 65.4061C18.5007 65.3997 18.5185 65.4018 18.5429 65.3839C21.3259 63.2975 24.0429 61.1469 26.694 58.9323C28.4775 57.5051 30.2265 56.4333 32.6289 56.6108C37.4068 56.9648 40.1195 62.2944 37.967 66.4752C37.9565 66.4963 37.9619 66.512 37.9829 66.5226L41.8607 68.4586Z" fill="#182D47"/>
<path d="M58.547 56.694C58.5461 56.7262 58.5529 56.7467 58.5678 56.7556L58.4811 56.8374C58.4614 56.7605 58.4834 56.7128 58.547 56.694Z" fill="#61A35C"/>
<path d="M57.3415 44.588L61.4696 44.4784L49.962 51.0176L45.4484 69.1738L43.9506 69.6082L41.7222 68.4026L46.1911 50.9729L30.9087 43.1064L32.5526 42.4489L47.6039 49.9013L57.3415 44.588Z" fill="white"/>
</svg>
