<svg width="520" height="164" viewBox="0 0 520 164" fill="none" xmlns="http://www.w3.org/2000/svg">
<path d="M12.2352 103.9H21.3352V55H12.7352V43H35.4352V103.9H44.5352V116H12.2352V103.9ZM68.4047 117.4C62.938 117.4 58.638 115.733 55.5047 112.4C52.3714 109.067 50.8047 104.5 50.8047 98.7V64.5H64.9047V96.4C64.9047 99.1333 65.5714 101.267 66.9047 102.8C68.238 104.267 70.038 105 72.3047 105C74.5714 105 76.738 104.267 78.8047 102.8C80.938 101.333 82.7047 99.3667 84.1047 96.9V64.5H98.2047V116H84.1047V109.2C82.1714 111.8 79.938 113.833 77.4047 115.3C74.938 116.7 71.938 117.4 68.4047 117.4ZM106.868 103.9H115.968V55H107.368V43H130.068V103.9H139.168V116H106.868V103.9ZM143.149 103.9H152.249V55H143.649V43H166.349V103.9H175.449V116H143.149V103.9ZM199.319 117.4C193.852 117.4 189.552 115.733 186.419 112.4C183.285 109.067 181.719 104.5 181.719 98.7V64.5H195.819V96.4C195.819 99.1333 196.485 101.267 197.819 102.8C199.152 104.267 200.952 105 203.219 105C205.485 105 207.652 104.267 209.719 102.8C211.852 101.333 213.619 99.3667 215.019 96.9V64.5H229.119V116H215.019V109.2C213.085 111.8 210.852 113.833 208.319 115.3C205.852 116.7 202.852 117.4 199.319 117.4ZM240.082 64.5H253.782L253.482 71.2H253.882C255.615 68.5333 257.715 66.5 260.182 65.1C262.715 63.7 265.582 63 268.782 63C274.582 63 279.115 65.2333 282.382 69.7C285.715 74.1 287.382 80.2667 287.382 88.2C287.382 97.6 284.915 104.833 279.982 109.9C275.115 114.9 268.149 117.4 259.082 117.4C257.949 117.4 256.249 117.333 253.982 117.2V137.8H240.082V64.5ZM260.482 105.1C264.682 105.1 267.849 103.733 269.982 101C272.182 98.2667 273.282 94.2667 273.282 89C273.282 84.7333 272.582 81.4 271.182 79C269.849 76.5333 267.982 75.3 265.582 75.3C263.449 75.3 261.382 76.2333 259.382 78.1C257.382 79.9 255.582 82.5 253.982 85.9V104.2C256.249 104.8 258.415 105.1 260.482 105.1ZM304.925 119.4C302.125 119.4 299.692 118.367 297.625 116.3C295.625 114.3 294.625 111.9 294.625 109.1C294.625 106.233 295.625 103.8 297.625 101.8C299.692 99.7333 302.125 98.7 304.925 98.7C307.792 98.7 310.225 99.7333 312.225 101.8C314.225 103.8 315.225 106.233 315.225 109.1C315.225 111.9 314.225 114.3 312.225 116.3C310.225 118.367 307.792 119.4 304.925 119.4ZM350.219 117.5C341.685 117.5 335.052 115.233 330.319 110.7C325.652 106.167 323.319 99.7667 323.319 91.5C323.319 85.9 324.419 80.9667 326.619 76.7C328.819 72.3667 331.919 69.0333 335.919 66.7C339.919 64.3 344.552 63.1 349.819 63.1C352.285 63.1 354.852 63.4 357.519 64C360.252 64.5333 362.352 65.1667 363.819 65.9L361.119 77.8C359.585 77.0667 357.885 76.5 356.019 76.1C354.219 75.6333 352.519 75.4 350.919 75.4C346.785 75.4 343.452 76.8 340.919 79.6C338.452 82.4 337.219 86.1 337.219 90.7C337.219 95.3667 338.485 98.9667 341.019 101.5C343.619 104.033 347.285 105.3 352.019 105.3C355.152 105.3 358.519 104.7 362.119 103.5L364.219 114.9C359.885 116.633 355.219 117.5 350.219 117.5ZM395.577 117.5C390.377 117.5 385.777 116.367 381.777 114.1C377.844 111.833 374.777 108.667 372.577 104.6C370.377 100.467 369.277 95.7 369.277 90.3C369.277 84.9 370.344 80.1667 372.477 76.1C374.677 71.9667 377.744 68.7667 381.677 66.5C385.677 64.2333 390.277 63.1 395.477 63.1C400.677 63.1 405.244 64.2333 409.177 66.5C413.177 68.7 416.244 71.8333 418.377 75.9C420.577 79.9667 421.677 84.6667 421.677 90C421.677 95.4 420.577 100.2 418.377 104.4C416.244 108.533 413.177 111.767 409.177 114.1C405.244 116.367 400.711 117.5 395.577 117.5ZM395.477 105.3C399.077 105.3 401.944 103.933 404.077 101.2C406.277 98.4 407.377 94.7333 407.377 90.2C407.377 85.6667 406.277 82.0667 404.077 79.4C401.944 76.6667 399.077 75.3 395.477 75.3C391.877 75.3 388.977 76.6667 386.777 79.4C384.644 82.0667 383.577 85.6667 383.577 90.2C383.577 94.7333 384.644 98.4 386.777 101.2C388.977 103.933 391.877 105.3 395.477 105.3ZM430.129 64.5H443.929V72.5C447.996 66.2333 453.496 63.1 460.429 63.1C464.362 63.1 467.696 64.0333 470.429 65.9C473.229 67.7 475.262 70.3 476.529 73.7C478.862 70.0333 481.462 67.3667 484.329 65.7C487.262 63.9667 490.596 63.1 494.329 63.1C499.862 63.1 504.162 64.7667 507.229 68.1C510.362 71.3667 511.929 75.9333 511.929 81.8V116H497.829V84C497.829 81.3333 497.162 79.2667 495.829 77.8C494.562 76.2667 492.829 75.5 490.629 75.5C487.896 75.5 485.362 76.6333 483.029 78.9C480.696 81.1667 478.962 84.0667 477.829 87.6V116H463.729V84C463.729 81.4 463.062 79.3333 461.729 77.8C460.396 76.2667 458.629 75.5 456.429 75.5C453.962 75.5 451.629 76.4333 449.429 78.3C447.296 80.1 445.562 82.6667 444.229 86V116H430.129V64.5Z" fill="#0480A0"/>
</svg>
