<svg width="200" height="200" viewBox="0 0 200 200" fill="none" xmlns="http://www.w3.org/2000/svg">
<rect width="200" height="200" rx="100" fill="white"/>
<path d="M67.2628 43.3239C56.1117 52.4786 50.974 67.1596 56.3725 80.9345C54.6676 83.6736 53.0431 86.461 51.4992 89.2979C48.0613 95.1497 44.841 101.117 41.8382 107.2C32.8093 125.483 27.9869 148.407 41.4961 166.144C45.6514 171.605 51.1795 175.769 57.7884 177.841C57.7884 177.841 143.114 177.238 144.039 176.746C150.177 173.48 154.448 167.627 155.793 160.801C157.188 153.722 154.47 146.815 147.591 143.823L147.753 143.388L147.984 143.17C148.998 143.085 150.069 143.073 151.016 142.86C164.044 139.926 168.628 123.933 157.643 115.412C156.941 114.866 156.196 114.411 155.408 114.045C155.696 113.221 155.933 112.377 156.118 111.512C156.232 110.977 155.812 110.485 155.319 110.763C149.524 114.037 139.651 119.656 125.699 127.62C125.116 127.953 125.078 128.124 124.92 128.747C121.518 142.171 118.3 155.648 114.864 169.062C114.296 171.273 113.76 173.524 113.256 175.817C112.123 176.682 110.873 177.02 109.507 176.831C107.76 176.587 105.395 175.145 103.614 174.251C103.923 173.848 104.184 173.23 104.396 172.395C108.225 157.307 112.032 142.208 115.781 127.101C115.795 127.043 115.767 126.983 115.712 126.956C102.255 120.287 88.7142 113.799 75.2948 107.05C75.1312 106.967 74.9345 106.945 74.7048 106.983L78.6631 105.136C78.7713 105.086 78.8957 105.088 79.0017 105.141L80.9385 106.129L104.554 117.777C108.063 119.545 111.58 121.295 115.105 123.026C117.158 124.033 118.778 125.325 120.572 126.705C120.632 126.752 120.682 126.743 120.723 126.678C121.903 124.806 123.474 122.939 125.451 121.896C127.487 120.824 129.553 119.722 131.649 118.589L144.642 111.318C144.733 111.267 144.745 111.202 144.678 111.122L136.884 101.91C136.905 101.836 136.944 101.775 137 101.724C147.356 92.3882 150.915 78.3088 146.996 64.9253C150.098 63.4871 152.682 61.4534 154.75 58.8251C159.62 52.635 158.139 43.5695 151.016 39.8892C144.722 36.6353 137.885 39.6115 133.866 44.8824C124.344 36.3557 111.857 32.0435 99.0809 32.1634C98.7106 32.1676 98.2858 32.2422 97.806 32.388C96.1277 27.1382 92.2779 23.6769 87.0165 22.3407C75.0644 19.3094 62.7129 28.9153 66.6693 41.6952C66.8996 42.442 67.0976 42.9854 67.2628 43.3239ZM120.38 30.7249C119.849 31.7892 119.93 32.8753 120.626 33.9827C121.294 35.0483 122.471 36.4849 123.777 36.5915C123.84 36.5964 123.893 36.5757 123.937 36.5287C124.129 36.3272 124.258 36.0725 124.323 35.7657C124.711 33.9163 124.631 31.9049 123.136 30.5195C122.401 29.8361 120.879 29.726 120.38 30.7249ZM127.105 33.2939C126.367 34.4535 126.077 35.7929 126.237 37.3128C126.273 37.6517 126.342 37.8668 126.734 37.8856C128.422 37.9656 129.883 37.4294 131.116 36.2776C132.121 35.3396 133.179 33.7828 133.329 32.3938C133.495 30.8506 132.279 29.9259 130.848 30.2988C129.325 30.6947 127.934 31.9869 127.105 33.2939Z" fill="#FEFDFE" fill-opacity="0.37"/>
<path d="M97.8061 32.388C98.0776 34.1981 98.1162 36.0002 97.9221 37.7939C97.9146 37.8668 97.8751 37.907 97.8042 37.9161L93.8465 38.4033C92.9079 38.369 92.0648 38.3292 91.1327 38.5323C85.0739 39.8549 79.725 42.1614 74.9712 46.2662C73.8337 47.2479 72.7697 48.2445 71.7805 49.2573C71.6849 49.3539 71.5278 49.3516 71.4357 49.2512C69.7639 47.4297 68.3727 45.4539 67.263 43.3239C67.0977 42.9854 66.8997 42.442 66.6694 41.6952C62.713 28.9153 75.0645 19.3094 87.0166 22.3407C92.278 23.6769 96.1278 27.1382 97.8061 32.388Z" fill="#182D47"/>
<path d="M120.38 30.7249C120.879 29.726 122.401 29.8362 123.136 30.5195C124.631 31.9049 124.711 33.9163 124.323 35.7657C124.258 36.0725 124.129 36.3272 123.937 36.5287C123.893 36.5757 123.84 36.5964 123.777 36.5916C122.471 36.485 121.294 35.0483 120.626 33.9827C119.93 32.8753 119.849 31.7892 120.38 30.7249Z" fill="#61A35C"/>
<path d="M127.105 33.2939C127.934 31.9869 129.325 30.6948 130.848 30.2988C132.278 29.9259 133.495 30.8506 133.329 32.3938C133.179 33.7828 132.121 35.3396 131.116 36.2776C129.883 37.4294 128.422 37.9656 126.734 37.8856C126.342 37.8668 126.273 37.6517 126.237 37.3128C126.077 35.7929 126.366 34.4535 127.105 33.2939Z" fill="#61A35C"/>
<path d="M133.865 44.8824C139.342 49.8545 143.704 55.8391 146.227 62.8155C146.486 63.5296 146.742 64.2333 146.996 64.9254C150.915 78.3088 147.356 92.3882 137 101.724C136.944 101.775 136.905 101.836 136.884 101.91C136.827 101.895 136.77 101.91 136.713 101.956C134.698 103.535 132.578 104.993 130.353 106.331C127.344 107.835 124.18 108.976 120.861 109.754C118.045 110.254 115.526 110.554 113.303 110.654C103.541 111.094 93.6043 108.837 84.6133 105.1C79.0907 102.647 73.9031 99.6193 69.0496 96.0151C68.1969 95.382 67.3849 94.7022 66.6138 93.9752C66.6517 93.8368 66.6549 93.7406 66.6232 93.6862C62.1607 85.987 61.3293 76.3353 63.2798 67.7798C66.6517 52.9791 79.1406 41.3375 93.8463 38.4034L97.804 37.9161C97.8749 37.907 97.9145 37.8668 97.9219 37.7939C98.116 36.0003 98.0774 34.1982 97.8059 32.388C98.2858 32.2422 98.7105 32.1677 99.0809 32.1634C111.857 32.0436 124.343 36.3557 133.865 44.8824ZM85.4524 98.9285C87.852 101.199 90.87 102.847 93.8687 104.192C93.9202 104.213 93.9759 104.171 93.9688 104.116C93.9672 104.103 93.962 104.091 93.9545 104.081C91.3609 100.803 91.0149 96.4337 94.0077 93.2595C96.1791 90.9575 98.9513 89.4709 101.54 87.8079C105.324 85.3762 109.164 80.2288 108.993 75.4599C108.81 70.3945 104.622 67.2795 99.7447 67.5329C94.748 67.7915 90.3448 70.872 86.971 74.3641C80.3128 81.2579 77.8313 91.7185 85.4524 98.9285ZM137.835 77.5267C135.251 71.8615 128.305 68.6228 122.922 72.8951C117.762 76.9918 118.076 84.1143 121.866 89.0144C124.768 92.7651 129.16 97.1588 126.052 102.268C124.962 104.06 123.682 105.027 121.788 106.259C121.734 106.293 121.738 106.305 121.801 106.297C124.393 105.918 126.567 105.306 128.323 104.46C133.898 101.775 137.887 97.6325 139.301 91.4959C140.398 86.7309 139.909 82.0744 137.835 77.5267ZM107.793 88.9746C105.962 90.0781 104.544 90.9753 103.541 91.667C100.131 94.0206 95.962 97.3241 99.1035 101.926C101.844 105.939 107.465 107.314 112.028 107.014C115.862 106.764 120.719 105.448 122.582 101.71C124.289 98.2834 122.547 95.4786 119.984 93.2274C120.407 91.3625 119.094 90.2307 117.527 89.4975C115.823 88.7002 110.5 86.7879 108.696 88.137C108.391 88.3664 108.089 88.6457 107.793 88.9746Z" fill="#3DC2D7"/>
<path d="M93.8463 38.4034C79.1406 41.3376 66.6517 52.9792 63.2799 67.7799C61.3294 76.3354 62.1608 85.9871 66.6232 93.6863C66.655 93.7407 66.6517 93.8369 66.6138 93.9753C62.43 90.7353 59.1576 86.7462 56.7969 82.0077C56.7548 81.926 56.4791 80.8854 56.3725 80.9346C50.974 67.1597 56.1117 52.4787 67.2628 43.324C68.3725 45.454 69.7637 47.4298 71.4356 49.2513C71.5276 49.3517 71.6847 49.354 71.7803 49.2574C72.7695 48.2446 73.8335 47.248 74.9711 46.2663C79.7248 42.1615 85.0737 39.855 91.1325 38.5324C92.0647 38.3293 92.9077 38.3691 93.8463 38.4034Z" fill="#0480A0"/>
<path d="M146.996 64.9253C146.742 64.2333 146.486 63.5295 146.227 62.8154C143.703 55.8391 139.342 49.8545 133.865 44.8824C137.884 39.6115 144.722 36.6353 151.016 39.8892C158.139 43.5695 159.619 52.635 154.75 58.8251C152.682 61.4534 150.097 63.4871 146.996 64.9253Z" fill="#182D47"/>
<path d="M85.4525 98.9285C77.8313 91.7185 80.3128 81.2579 86.971 74.3641C90.3449 70.8721 94.748 67.7915 99.7447 67.5329C104.622 67.2796 108.81 70.3945 108.993 75.4599C109.164 80.2289 105.324 85.3763 101.54 87.8079C98.9513 89.471 96.1791 90.9575 94.0077 93.2595C91.0149 96.4337 91.3609 100.803 93.9545 104.081C93.9882 104.126 93.961 104.19 93.9063 104.197C93.8936 104.199 93.8803 104.197 93.8687 104.192C90.8701 102.847 87.852 101.199 85.4525 98.9285ZM100.879 83.0697C100.879 81.0269 99.2228 79.3706 97.1796 79.3706C95.1371 79.3706 93.4809 81.0269 93.4809 83.0697C93.4809 85.1125 95.1371 86.7688 97.1796 86.7688C99.2228 86.7688 100.879 85.1125 100.879 83.0697Z" fill="#FEFDFE"/>
<path d="M122.922 72.8951C128.305 68.6228 135.251 71.8615 137.835 77.5267C139.909 82.0743 140.398 86.7309 139.301 91.4959C137.887 97.6325 133.898 101.775 128.322 104.46C126.567 105.306 124.393 105.918 121.801 106.297C121.738 106.305 121.734 106.293 121.788 106.259C123.681 105.027 124.962 104.06 126.052 102.268C129.16 97.1588 124.768 92.765 121.866 89.0144C118.076 84.1142 117.762 76.9917 122.922 72.8951ZM131.618 85.7718C131.618 83.7478 129.978 82.1067 127.953 82.1067C125.929 82.1067 124.289 83.7478 124.289 85.7718C124.289 87.7958 125.929 89.4369 127.953 89.4369C129.978 89.4369 131.618 87.7958 131.618 85.7718Z" fill="#FEFDFE"/>
<path d="M97.1796 86.7688C99.2225 86.7688 100.879 85.1127 100.879 83.0697C100.879 81.0268 99.2225 79.3706 97.1796 79.3706C95.1366 79.3706 93.4805 81.0268 93.4805 83.0697C93.4805 85.1127 95.1366 86.7688 97.1796 86.7688Z" fill="#182D47"/>
<path d="M56.3722 80.9346C56.4788 80.8853 56.7545 81.926 56.7967 82.0076C59.1573 86.7461 62.4297 90.7352 66.6135 93.9752C67.3847 94.7023 68.1966 95.382 69.0494 96.0151C73.9029 99.6193 79.0904 102.647 84.613 105.1C84.6458 105.26 84.6185 105.329 84.5311 105.305C83.9054 105.126 83.2046 104.795 82.5884 104.867C81.9932 104.937 81.4553 105.165 80.9748 105.551C80.9165 105.597 80.9136 105.647 80.9671 105.699L81.0698 105.802C81.1167 105.849 81.1294 105.92 81.1022 105.981C81.073 106.047 81.0183 106.096 80.9382 106.129L79.0014 105.141C78.8954 105.088 78.771 105.086 78.6628 105.136L74.7045 106.983C74.3672 106.911 74.1371 107.138 74.014 107.665C72.9636 112.163 71.9122 116.664 70.8609 121.168C70.8453 121.228 70.8524 121.287 70.8819 121.344C72.2936 124.182 73.0845 127.184 73.2546 130.349C73.5403 135.643 70.4727 140.442 64.9258 140.963C64.8899 140.967 64.8254 141.001 64.7314 141.064C64.6057 141.067 64.4806 141.034 64.3566 140.967C64.3021 140.938 64.2444 140.924 64.1835 140.925C62.4278 140.939 60.915 140.651 59.6453 140.06C48.7171 134.971 46.1348 121.095 46.9697 110.371C47.5199 103.315 49.4571 96.5271 51.5731 89.8076C51.636 89.608 51.5673 89.4768 51.4989 89.298C53.0428 86.461 54.6673 83.6737 56.3722 80.9346Z" fill="#182D47"/>
<path d="M127.953 89.437C129.977 89.437 131.618 87.7961 131.618 85.7719C131.618 83.7477 129.977 82.1068 127.953 82.1068C125.929 82.1068 124.288 83.7477 124.288 85.7719C124.288 87.7961 125.929 89.437 127.953 89.437Z" fill="#182D47"/>
<path d="M119.984 93.2274C119.028 94.7661 117.703 95.9124 116.011 96.6661C114.194 97.4748 111.895 97.606 110.367 96.1865C108.242 94.2124 107.384 91.8083 107.793 88.9746C108.089 88.6458 108.391 88.3665 108.696 88.1371C110.5 86.7879 115.823 88.7002 117.528 89.4976C119.094 90.2308 120.407 91.3625 119.984 93.2274Z" fill="#182D47"/>
<path d="M107.793 88.9746C107.384 91.8083 108.242 94.2124 110.367 96.1865C111.895 97.606 114.194 97.4748 116.011 96.666C117.703 95.9124 119.028 94.7661 119.984 93.2274C122.547 95.4786 124.289 98.2835 122.582 101.71C120.719 105.448 115.863 106.764 112.028 107.014C107.465 107.314 101.844 105.939 99.1037 101.926C95.9622 97.3241 100.131 94.0206 103.541 91.6671C104.545 90.9753 105.962 90.0782 107.793 88.9746Z" fill="#FEFDFE"/>
<path d="M51.4992 89.298C51.5676 89.4768 51.6363 89.608 51.5734 89.8076C49.4574 96.5271 47.5202 103.315 46.9701 110.371C46.1351 121.095 48.7174 134.971 59.6456 140.06C60.9153 140.651 62.4281 140.939 64.1838 140.925C64.2448 140.924 64.3024 140.938 64.3569 140.967C64.481 141.034 64.606 141.067 64.7317 141.064C64.7317 141.302 64.7492 141.511 64.688 141.745C64.0792 144.088 63.6282 146.49 63.335 148.952C56.2944 154.833 49.0786 160.544 41.6879 166.085C41.6231 166.133 41.5758 166.127 41.4961 166.144C27.9869 148.408 32.8093 125.483 41.8382 107.2C44.841 101.117 48.0613 95.1497 51.4992 89.298Z" fill="#0480A0"/>
<path d="M136.884 101.91L144.678 111.122C144.745 111.202 144.733 111.267 144.642 111.318L131.649 118.589C132.029 114.457 131.598 110.371 130.353 106.331C132.578 104.993 134.698 103.535 136.713 101.956C136.77 101.91 136.827 101.895 136.884 101.91Z" fill="#182D47"/>
<path d="M84.6133 105.1C93.6043 108.837 103.541 111.094 113.303 110.654C115.526 110.554 118.045 110.254 120.861 109.754C118.407 114.249 113.971 117.097 109.016 118.051C107.537 118.334 106.213 118.507 104.915 117.764C104.821 117.71 104.701 117.714 104.554 117.777L80.9385 106.129C81.0185 106.096 81.0733 106.046 81.1024 105.981C81.1296 105.92 81.117 105.849 81.07 105.802L80.9673 105.699C80.9139 105.647 80.9168 105.597 80.9751 105.551C81.4556 105.165 81.9934 104.937 82.5886 104.867C83.2049 104.795 83.9057 105.126 84.5313 105.305C84.6188 105.329 84.646 105.26 84.6133 105.1Z" fill="#0480A0"/>
<path d="M130.353 106.331C131.598 110.371 132.029 114.457 131.649 118.589C129.553 119.722 127.487 120.825 125.451 121.896C123.474 122.939 121.902 124.806 120.723 126.679C120.682 126.743 120.632 126.752 120.572 126.705C118.778 125.325 117.158 124.033 115.105 123.026C111.58 121.295 108.062 119.545 104.554 117.777C104.7 117.714 104.821 117.71 104.915 117.764C106.213 118.507 107.537 118.334 109.016 118.051C113.971 117.097 118.407 114.249 120.861 109.754C124.18 108.976 127.344 107.835 130.353 106.331Z" fill="#0480A0"/>
<path d="M74.7048 106.983C74.9345 106.945 75.1312 106.967 75.2948 107.05C88.7142 113.799 102.255 120.287 115.712 126.956C115.767 126.983 115.795 127.043 115.781 127.101C112.032 142.208 108.225 157.307 104.396 172.395C104.184 173.23 103.923 173.848 103.614 174.251L93.3153 169.109C93.2596 169.081 93.2453 169.04 93.2732 168.983C98.9895 157.88 91.7854 143.726 79.0966 142.786C72.7164 142.315 68.0715 145.161 63.335 148.952C63.6282 146.49 64.0792 144.088 64.688 141.745C64.7492 141.511 64.7317 141.302 64.7317 141.064C64.8257 141.001 64.8902 140.967 64.9261 140.963C70.473 140.442 73.5406 135.643 73.2549 130.349C73.0848 127.184 72.2939 124.182 70.8822 121.344C70.8527 121.287 70.8456 121.228 70.8612 121.168C71.9125 116.664 72.9639 112.163 74.0143 107.665C74.1374 107.138 74.3675 106.911 74.7048 106.983Z" fill="#FE7F15"/>
<path d="M155.408 114.045L147.928 143.007C147.759 143.057 147.701 143.183 147.753 143.388L147.591 143.823C143.264 142.511 139.243 143.1 135.528 145.589C128.085 150.579 124.389 159.614 126.707 168.399C126.724 168.464 126.702 168.512 126.644 168.544C122.875 170.59 119.132 172.661 115.415 174.757C114.816 175.094 114.097 175.448 113.255 175.817C113.76 173.524 114.296 171.273 114.863 169.062C118.3 155.648 121.518 142.172 124.92 128.747C125.078 128.124 125.116 127.953 125.699 127.62C139.65 119.656 149.524 114.037 155.319 110.763C155.812 110.485 156.232 110.977 156.118 111.512C155.933 112.377 155.696 113.221 155.408 114.045Z" fill="#FE7F15"/>
<path d="M155.408 114.045C156.196 114.411 156.941 114.866 157.642 115.412C168.628 123.933 164.044 139.926 151.016 142.86C150.069 143.074 148.997 143.085 147.983 143.17C147.944 143.147 147.926 143.092 147.928 143.007L155.408 114.045Z" fill="#182D47"/>
<path d="M103.614 174.251C105.395 175.145 107.76 176.587 109.507 176.831C110.873 177.02 112.123 176.682 113.256 175.817C114.097 175.448 114.816 175.094 115.415 174.757C119.132 172.661 122.875 170.59 126.644 168.544C126.703 168.512 126.724 168.464 126.707 168.399C124.389 159.614 128.085 150.579 135.529 145.589C139.244 143.1 143.264 142.511 147.592 143.823C154.47 146.815 157.188 153.722 155.793 160.801C154.448 167.627 150.177 173.48 144.039 176.746C143.114 177.238 142.052 177.611 141.036 177.982C140.567 178.094 140.028 178.151 139.42 178.153C133.382 178.184 127.626 177.978 121.724 177.729C118.158 177.581 114.622 177.622 111.077 177.417C109.912 177.35 108.91 177.329 108.07 177.354C102.974 177.511 97.8779 177.568 92.7804 177.524C90.4039 177.502 87.9337 177.457 85.599 177.88C83.1955 178.315 80.5984 178.458 78.3375 178.45C73.1745 178.434 68.011 178.414 62.848 178.391C61.3715 178.384 58.9795 178.42 57.7884 177.841C51.1795 175.769 45.6514 171.605 41.4961 166.144C41.5758 166.127 41.6231 166.133 41.6879 166.085C49.0787 160.544 56.2945 154.833 63.335 148.952C68.0715 145.161 72.7164 142.315 79.0966 142.786C91.7854 143.726 98.9896 157.88 93.2732 168.983C93.2454 169.04 93.2596 169.081 93.3154 169.109L103.614 174.251Z" fill="#182D47"/>
<path d="M147.928 143.007C147.926 143.092 147.944 143.147 147.983 143.17L147.753 143.388C147.701 143.183 147.759 143.057 147.928 143.007Z" fill="#61A35C"/>
<path d="M144.726 110.857L155.689 110.566L125.128 127.932L113.141 176.15L109.163 177.304L103.245 174.102L115.114 127.813L74.5273 106.922L78.8932 105.176L118.865 124.967L144.726 110.857Z" fill="white"/>
</svg>
